<?xml version="1.0" standalone="no"?>
<!DOCTYPE svg PUBLIC "-//W3C//DTD SVG 20010904//EN"
 "http://www.w3.org/TR/2001/REC-SVG-20010904/DTD/svg10.dtd">
<svg version="1.0" xmlns="http://www.w3.org/2000/svg"
 width="1280.000000pt" height="1280.000000pt" viewBox="0 0 1280.000000 1280.000000"
 preserveAspectRatio="xMidYMid meet">
<metadata>
Created by potrace 1.16, written by Peter Selinger 2001-2019
</metadata>
<g transform="translate(0.000000,1280.000000) scale(0.100000,-0.100000)"
fill="#000000" stroke="none">
<path d="M0 6400 l0 -6400 6400 0 6400 0 0 6400 0 6400 -6400 0 -6400 0 0
-6400z m6252 3508 c37 -117 71 -232 77 -255 l11 -41 108 107 c170 169 361 289
580 365 l104 36 551 0 c551 0 552 0 653 -24 120 -30 207 -61 314 -115 44 -23
80 -37 81 -33 0 4 0 44 -1 90 l-1 82 1123 0 1123 0 207 -212 207 -213 0 -1050
0 -1050 -94 -63 c-104 -70 -283 -211 -329 -260 l-29 -31 21 -73 c19 -62 41
-219 42 -295 0 -17 6 -23 23 -23 12 0 60 -23 107 -50 111 -65 305 -164 353
-179 20 -7 37 -18 36 -24 0 -7 -48 -50 -106 -97 -98 -78 -256 -211 -394 -331
-31 -27 -69 -59 -85 -71 -16 -12 -128 -110 -248 -218 -121 -107 -251 -222
-291 -255 -128 -108 -215 -189 -212 -198 6 -19 103 -48 206 -63 136 -19 126
-15 269 -96 67 -39 178 -94 245 -123 119 -52 426 -155 460 -155 16 0 17 -23
17 -277 0 -153 3 -412 6 -576 4 -165 3 -331 -1 -371 l-6 -72 -311 -259 c-403
-337 -478 -397 -626 -506 l-123 -90 -1717 1 -1717 0 -17 23 c-28 36 -155 262
-313 556 -81 151 -155 287 -165 304 l-18 29 -44 -69 c-99 -154 -223 -375 -373
-663 l-90 -175 -1611 -3 -1611 -2 -54 42 c-128 101 -430 359 -496 424 l-73 71
-72 6 c-263 23 -442 149 -514 363 -50 148 -35 248 46 301 28 19 46 23 116 23
l84 0 0 455 0 454 88 27 c345 104 494 166 652 275 98 67 210 173 209 197 0 10
-57 69 -126 132 -69 63 -158 145 -197 181 -39 36 -111 101 -161 144 -49 44
-198 179 -330 300 -132 121 -273 249 -312 284 -70 61 -89 91 -59 91 29 0 414
201 476 248 36 27 105 91 153 141 l89 90 -23 38 c-130 216 -252 298 -671 452
l-28 11 0 1049 0 1050 103 98 c56 53 154 150 217 214 l115 116 2155 2 2155 1
67 -212z m-5186 -8330 c4 -7 3 -8 -5 -4 -16 10 -41 -12 -34 -30 3 -8 14 -14
24 -14 20 0 26 15 9 23 -6 3 -5 4 2 3 22 -4 14 -31 -9 -34 -30 -4 -49 31 -27
52 18 19 30 20 40 4z m68 -32 c-3 -15 -8 -25 -11 -23 -2 3 -1 17 3 31 3 15 8
25 11 23 2 -3 1 -17 -3 -31z m-154 -28 c0 -4 -7 -5 -16 -1 -9 3 -20 0 -25 -8
-7 -11 -9 -9 -9 8 0 17 4 21 18 17 16 -5 16 -5 0 9 -10 8 -15 17 -11 21 7 7
42 -32 43 -46z m230 48 c0 -2 -7 -17 -15 -32 -16 -30 -19 -25 -9 14 5 18 24
33 24 18z m30 -40 c-10 -28 -30 -27 -30 2 0 13 2 14 9 4 6 -10 10 -8 14 9 4
13 9 21 12 17 3 -3 1 -17 -5 -32z m-360 -29 c10 -20 10 -20 -3 -5 -8 10 -17
15 -20 11 -4 -3 -7 1 -7 11 0 21 16 12 30 -17z m450 22 c12 -8 10 -9 -7 -4
-21 6 -33 -8 -15 -18 4 -2 1 -2 -5 -1 -19 5 -16 -14 5 -25 14 -9 14 -10 2 -11
-30 0 -40 21 -23 46 17 27 22 28 43 13z m-476 -41 c-3 -4 -11 -5 -19 -1 -11 4
-14 0 -9 -13 6 -17 5 -17 -9 1 -27 33 -22 45 12 32 17 -6 28 -14 25 -19z m564
-42 c-4 -25 -33 -33 -54 -15 -13 10 -12 15 7 35 17 19 25 21 36 12 8 -6 13
-21 11 -32z m-628 -19 c0 -6 -9 -2 -20 8 -11 10 -20 23 -20 28 0 6 9 2 20 -8
11 -10 20 -23 20 -28z m-103 -77 c14 -11 22 -20 17 -20 -12 1 -61 39 -51 40 5
0 20 -9 34 -20z m467 -5 c33 -30 34 -68 1 -100 -57 -58 -144 3 -115 80 18 47
74 57 114 20z m339 6 c-30 -25 -29 -29 5 -23 l27 5 -20 -22 -19 -22 29 6 c23
5 26 4 15 -4 -18 -13 -50 -14 -50 -3 0 4 6 14 13 21 10 11 8 12 -10 6 -15 -4
-23 -2 -23 6 0 16 30 49 44 49 6 -1 1 -9 -11 -19z m-828 -78 c-9 -8 -12 -20
-8 -26 3 -7 -6 -1 -20 12 -30 27 -22 41 18 33 21 -4 22 -6 10 -19z m660 -45
c46 -202 52 -196 -122 -132 -24 9 -43 20 -43 25 0 17 124 129 142 129 10 0 20
-10 23 -22z m225 2 c-8 -5 -24 -9 -35 -9 l-20 0 20 9 c11 5 27 9 35 9 13 1 13
0 0 -9z m-517 -103 c25 -51 34 -61 81 -81 86 -38 85 -53 -6 -92 -45 -19 -54
-27 -70 -70 -36 -93 -58 -94 -97 -3 -19 43 -29 53 -79 77 -31 15 -57 34 -57
42 0 8 26 27 58 43 49 23 61 34 80 75 43 91 49 92 90 9z m550 3 c-2 -2 -7 1
-11 7 -4 6 -18 13 -32 16 -25 4 -25 4 3 6 18 1 27 7 28 19 1 9 4 4 8 -13 4
-16 6 -32 4 -35z m-955 13 c-10 -2 -18 -11 -18 -18 0 -7 8 -16 18 -18 9 -3 1
-5 -18 -5 -19 0 -29 2 -22 5 6 2 12 13 12 24 0 13 7 19 23 18 16 -1 18 -2 5
-6z m952 -70 c-8 -3 -18 -11 -22 -17 -6 -8 -8 -8 -8 1 0 6 -8 14 -17 16 -10 3
0 5 22 5 22 0 33 -2 25 -5z m-960 -46 l25 -4 -27 -2 c-16 0 -28 -8 -31 -18 -3
-10 -5 -2 -6 17 0 19 3 30 7 24 4 -7 18 -14 32 -17z m948 6 c-10 -2 -26 -2
-35 0 -10 3 -2 5 17 5 19 0 27 -2 18 -5z m-923 -83 c-11 -5 -27 -9 -35 -9 -13
-1 -13 0 0 9 8 5 24 9 35 9 l20 0 -20 -9z m900 -58 c-3 -3 -12 3 -21 14 -13
16 -15 17 -10 2 4 -13 0 -18 -15 -18 -19 0 -19 1 -5 16 9 8 13 21 9 27 -3 7 6
1 20 -12 15 -14 25 -27 22 -29z m-865 0 c0 -4 -6 -14 -12 -21 -11 -11 -9 -12
10 -6 14 4 22 2 22 -6 0 -16 -30 -49 -43 -49 -6 0 0 11 12 24 l22 23 -28 -5
-28 -5 20 22 19 22 -29 -6 c-23 -5 -26 -4 -15 4 18 13 50 14 50 3z m804 -57
c11 -8 16 -15 10 -15 -5 0 -18 7 -28 15 -11 8 -16 15 -10 15 5 0 18 -7 28 -15z
m-686 -87 c17 -17 -25 -63 -45 -47 -14 12 -18 41 -6 52 10 11 38 8 51 -5z
m612 -31 c0 -6 -9 -2 -20 8 -11 10 -20 23 -20 28 0 6 9 2 20 -8 11 -10 20 -23
20 -28z m-50 -44 c0 -8 -7 -8 -29 0 -17 6 -27 15 -24 19 2 5 12 3 20 -4 14
-11 15 -10 8 12 -7 24 -7 24 9 5 8 -11 16 -25 16 -32z m-482 24 c8 -9 6 -19
-7 -36 -15 -20 -21 -22 -37 -12 -18 11 -17 11 4 6 20 -6 32 8 15 18 -5 2 -2 2
5 1 15 -4 16 8 0 24 -8 8 -8 12 -1 12 6 0 15 -6 21 -13z m425 -30 c4 3 7 -1 7
-11 0 -21 -16 -12 -30 17 -10 20 -10 20 3 5 8 -10 17 -15 20 -11z m-353 -25
c0 -13 -2 -14 -9 -4 -6 10 -10 8 -14 -9 -4 -13 -9 -21 -12 -17 -9 8 17 58 26
52 5 -3 9 -13 9 -22z m275 -30 c-5 -15 -9 -13 -25 8 -25 32 -25 39 0 33 12 -3
21 0 21 8 1 8 4 4 6 -9 3 -13 2 -31 -2 -40z m-251 14 c-3 -14 -11 -26 -16 -26
-5 0 -7 6 -4 13 3 6 9 20 12 30 10 27 16 13 8 -17z m60 -10 c-3 -15 -8 -25
-11 -23 -2 3 -1 17 3 31 3 15 8 25 11 23 2 -3 1 -17 -3 -31z m102 16 c1 -7 0
-8 -3 -2 -6 12 -43 13 -43 1 0 -5 6 -12 13 -14 9 -4 9 -6 0 -6 -16 -1 -26 16
-18 30 9 14 48 7 51 -9z m-1 -41 c-8 -14 -32 -14 -40 -1 -3 5 0 7 8 4 8 -3 18
0 22 6 4 6 9 9 12 6 3 -2 2 -9 -2 -15z"/>
<path d="M1858 9707 l-117 -122 -1 -897 0 -896 86 -31 c105 -38 116 -39 108
-7 -9 38 15 267 37 354 70 275 314 550 679 764 487 286 1244 464 1782 419 481
-40 741 -255 726 -600 l-3 -84 48 -12 c197 -50 302 -287 238 -538 -19 -73 -48
-143 -56 -135 -2 2 5 49 16 103 29 140 29 263 -1 340 -32 83 -104 153 -195
189 -38 15 -75 32 -81 37 -7 5 -8 30 -3 70 13 111 -14 231 -70 313 -91 131
-255 219 -491 263 -129 24 -476 23 -640 -1 -641 -93 -1183 -307 -1531 -602
-299 -253 -409 -473 -409 -815 0 -100 4 -131 26 -201 55 -174 125 -286 247
-397 89 -82 132 -110 202 -136 28 -10 52 -20 54 -22 5 -4 -73 -94 -155 -179
-87 -89 -211 -191 -337 -279 l-98 -67 58 -52 c32 -28 116 -105 187 -171 71
-66 161 -149 201 -185 39 -36 121 -110 181 -166 223 -207 380 -350 418 -381
27 -22 37 -37 32 -48 -3 -9 -43 -71 -88 -138 -99 -146 -228 -279 -349 -360
-91 -60 -265 -146 -389 -191 -41 -16 -101 -38 -132 -49 l-58 -22 0 -323 c0
-259 3 -324 13 -328 13 -5 213 60 322 104 156 63 432 209 575 305 217 146 445
350 487 437 9 19 65 229 124 465 59 237 126 495 149 575 54 186 198 618 262
785 266 689 624 1231 990 1498 147 107 222 137 268 107 11 -7 1 -10 -36 -10
-42 0 -61 -7 -115 -41 -294 -190 -694 -718 -914 -1209 -211 -470 -353 -897
-534 -1605 -153 -596 -149 -583 -212 -660 -257 -313 -884 -677 -1399 -813
-129 -34 -142 -36 -289 -35 -88 1 -163 -2 -173 -8 -58 -31 -72 -121 -37 -235
31 -101 55 -142 118 -204 143 -140 326 -179 711 -150 203 15 651 99 1008 190
492 124 513 130 807 210 414 112 480 129 630 165 83 19 177 42 210 50 58 14
89 8 63 -12 -16 -14 -121 -45 -261 -77 -59 -14 -216 -55 -350 -92 -395 -108
-445 -121 -852 -224 -404 -102 -592 -145 -877 -200 -91 -18 -172 -37 -180 -41
-14 -10 14 -38 175 -182 l75 -67 549 -3 c301 -1 967 -1 1478 1 l930 3 96 172
c100 180 275 489 364 642 28 50 74 129 101 177 27 48 54 88 59 88 6 0 22 -24
37 -53 32 -66 142 -252 175 -295 22 -29 28 -31 61 -26 37 6 37 5 71 -58 28
-50 150 -261 236 -408 8 -14 43 -73 76 -132 l62 -107 1606 -3 1606 -3 198 160
c272 219 255 206 417 341 191 161 219 186 221 204 1 8 1 216 0 463 -1 325 -4
447 -12 447 -7 0 -57 21 -113 46 -180 82 -170 79 -162 52 78 -263 71 -449 -23
-643 -173 -354 -656 -586 -1219 -585 -226 0 -407 31 -643 110 -180 60 -287
121 -394 225 -70 66 -60 87 13 28 124 -101 243 -164 419 -223 395 -132 786
-133 1182 -5 199 65 356 159 480 291 134 141 193 292 193 494 1 294 -133 548
-375 712 -223 151 -560 218 -1032 205 -220 -6 -330 -19 -610 -67 -93 -17 -175
-30 -182 -30 -15 0 -17 26 -3 35 13 8 322 61 465 80 232 30 409 38 571 25 89
-8 158 -9 166 -4 16 9 369 312 583 500 104 92 174 152 432 370 156 133 203
214 203 355 0 51 -2 57 -23 63 -22 5 -24 13 -40 153 -27 246 -72 377 -158 465
-40 40 -56 48 -108 59 -34 6 -64 16 -67 20 -12 21 34 21 90 2 l59 -21 56 52
c31 28 87 78 126 111 38 33 84 76 102 95 l32 35 1 913 0 913 -112 119 -113
119 -982 0 c-1084 0 -1020 4 -926 -61 69 -47 213 -194 268 -273 73 -104 166
-294 214 -436 l43 -126 80 -59 c231 -169 424 -434 516 -709 92 -276 112 -512
66 -785 -30 -180 -111 -386 -140 -358 -2 3 14 59 35 124 132 402 114 792 -52
1138 -85 177 -171 301 -286 416 -210 210 -433 328 -743 396 -166 36 -440 45
-639 19 -383 -48 -759 -193 -1108 -427 -274 -183 -444 -326 -774 -647 -91 -89
-130 -122 -138 -114 -8 8 24 47 110 135 521 538 1038 881 1545 1027 339 98
732 114 1024 42 130 -31 127 -35 64 79 -53 97 -83 139 -162 223 -173 185 -356
297 -604 369 l-99 28 -498 0 -498 0 -101 -40 c-190 -74 -306 -147 -443 -279
-109 -105 -200 -223 -272 -350 -59 -104 -131 -259 -140 -300 -4 -17 -11 -31
-16 -31 -5 0 -9 3 -9 6 0 3 -11 54 -25 113 -13 59 -49 253 -80 431 -30 179
-60 353 -67 388 l-12 62 -2020 0 -2021 -1 -117 -122z m2887 -675 c-3 -3 -11 0
-18 7 -9 10 -8 11 6 5 10 -3 15 -9 12 -12z m-394 -7 c31 -4 54 -14 70 -31 22
-23 22 -27 11 -70 -43 -160 -384 -522 -707 -750 -159 -113 -525 -315 -675
-374 -81 -32 -272 -79 -381 -95 -161 -22 -323 7 -395 72 -16 16 -23 23 -14 16
73 -56 234 -90 370 -78 418 37 1055 382 1470 797 188 188 313 358 314 430 1
37 -3 44 -29 58 -67 34 -401 6 -655 -56 -264 -63 -642 -204 -839 -313 -41 -23
-75 -41 -77 -41 -8 0 -113 -67 -179 -114 -168 -120 -317 -268 -379 -376 -14
-25 -26 -40 -26 -35 0 20 77 136 133 199 31 35 103 101 160 146 56 44 107 85
113 89 51 41 157 106 235 146 52 26 99 51 104 55 6 5 78 36 160 70 367 152
619 221 910 250 182 17 202 18 306 5z m4376 -51 c-3 -3 -12 -4 -19 -1 -8 3 -5
6 6 6 11 1 17 -2 13 -5z m120 -10 c-3 -3 -12 -4 -19 -1 -8 3 -5 6 6 6 11 1 17
-2 13 -5z m116 -23 c7 -7 1 -8 -24 -1 -19 5 -45 11 -59 14 -14 3 -3 3 23 2 27
-2 54 -9 60 -15z m-828 -21 c-401 -92 -844 -335 -1245 -683 -183 -158 -978
-978 -1014 -1045 -5 -9 -32 -44 -61 -77 -28 -33 -89 -116 -134 -185 -98 -146
-89 -135 -98 -127 -3 4 1 15 11 25 10 9 45 60 78 112 129 202 296 394 738 852
302 312 407 410 635 592 162 129 435 302 573 363 31 13 71 31 87 38 183 82
406 153 480 153 17 0 -6 -8 -50 -18z m894 -82 c39 -12 30 -13 -96 -10 -219 6
-388 -35 -614 -148 -209 -104 -375 -227 -555 -411 -179 -183 -260 -283 -401
-494 -102 -153 -169 -270 -270 -470 -145 -289 -196 -416 -344 -858 -118 -352
-161 -457 -227 -555 -60 -88 -107 -123 -157 -120 -37 3 -42 7 -64 52 -23 47
-25 58 -24 216 3 378 108 921 244 1264 39 96 58 135 47 91 -10 -35 -88 -317
-113 -410 -86 -311 -151 -769 -143 -1007 4 -134 18 -178 57 -178 11 0 43 26
71 58 78 85 145 235 259 573 156 466 231 651 366 914 169 327 285 503 527 796
141 172 348 356 529 472 86 55 267 143 352 172 68 22 209 55 302 69 50 7 207
-3 254 -16z m-4063 -158 c-45 -202 -198 -394 -539 -678 -319 -265 -637 -458
-985 -596 -175 -69 -383 -124 -506 -132 -106 -7 -291 9 -356 31 -27 8 -33 13
-15 10 76 -13 259 -16 352 -6 387 42 916 282 1354 613 211 159 441 374 540
503 92 120 148 250 150 347 l1 53 10 -38 c8 -28 6 -55 -6 -107z m4155 -47 c4
-4 -22 -9 -59 -9 -119 -2 -288 -73 -485 -203 -229 -151 -510 -471 -724 -826
-132 -219 -324 -621 -421 -882 -206 -550 -287 -1152 -191 -1409 30 -80 77
-137 122 -148 79 -20 221 52 303 153 55 69 66 87 119 205 19 44 38 76 41 73
12 -11 -16 -108 -53 -183 -53 -109 -144 -204 -237 -248 -86 -41 -122 -48 -171
-35 -83 23 -150 123 -181 271 -23 109 -15 452 15 613 84 460 217 843 451 1304
209 413 397 681 659 942 227 226 435 351 646 389 55 10 153 6 166 -7z m359
-64 c72 -96 89 -127 124 -234 44 -131 51 -326 17 -486 -40 -186 -205 -460
-379 -628 -196 -188 -382 -308 -560 -361 -84 -24 -91 -41 -30 -72 77 -40 204
-44 383 -12 274 48 533 218 687 450 91 136 163 335 179 494 6 62 7 54 4 -50
-2 -103 -8 -140 -30 -210 -57 -178 -134 -299 -275 -433 -189 -180 -382 -271
-631 -297 -211 -21 -389 27 -389 106 0 18 10 26 48 40 167 61 229 94 382 204
107 77 303 272 372 370 115 164 184 318 213 475 13 69 16 121 12 225 -8 194
-37 275 -149 423 -32 42 -55 77 -49 77 5 0 37 -36 71 -81z m-280 9 c40 -41 50
-67 50 -126 0 -63 -33 -131 -173 -355 -139 -221 -179 -292 -294 -517 -127
-247 -172 -367 -303 -805 -185 -617 -236 -894 -210 -1155 6 -68 17 -133 23
-145 6 -11 12 -31 14 -45 l2 -25 -15 27 c-55 103 -65 401 -21 641 65 355 259
1004 383 1280 64 141 206 422 275 544 32 58 59 107 59 109 0 2 12 23 27 47 98
153 184 305 199 349 25 76 15 134 -30 175 -20 18 -32 33 -27 33 5 0 23 -15 41
-32z m471 -80 c17 -31 4 -20 -41 35 -43 52 -43 52 -6 17 21 -19 42 -43 47 -52z
m-7392 -224 c-59 -89 -74 -109 -63 -79 4 11 26 46 48 79 57 82 60 85 63 82 2
-2 -20 -38 -48 -82z m7580 -129 c0 -5 -4 -3 -9 5 -5 8 -9 22 -9 30 0 16 17
-16 18 -35z m8 -37 c-3 -8 -6 -5 -6 6 -1 11 2 17 5 13 3 -3 4 -12 1 -19z
m-7651 -104 c-8 -21 -15 -34 -15 -28 -1 15 20 76 25 71 2 -2 -2 -21 -10 -43z
m7681 -36 c-3 -7 -5 -2 -5 12 0 14 2 19 5 13 2 -7 2 -19 0 -25z m-7700 -30
c-3 -8 -6 -5 -6 6 -1 11 2 17 5 13 3 -3 4 -12 1 -19z m7710 -55 c-3 -10 -5 -2
-5 17 0 19 2 27 5 18 2 -10 2 -26 0 -35z m-4756 -46 c-10 -9 -11 -8 -5 6 3 10
9 15 12 12 3 -3 0 -11 -7 -18z m-86 -146 c-26 -39 -50 -71 -52 -71 -5 0 1 10
51 87 22 34 42 61 44 58 2 -2 -17 -36 -43 -74z m-2918 47 c-3 -8 -6 -5 -6 6
-1 11 2 17 5 13 3 -3 4 -12 1 -19z m67 -168 c8 -17 11 -28 6 -25 -5 3 -15 19
-24 35 -8 17 -11 28 -6 25 5 -3 15 -19 24 -35z m6037 -221 c-147 -389 -215
-641 -287 -1064 -28 -163 -41 -201 -30 -90 20 207 97 566 169 785 72 218 195
536 203 527 2 -2 -23 -73 -55 -158z m-5935 99 l29 -33 -35 30 c-19 17 -37 31
-39 33 -2 1 0 2 5 2 6 0 23 -15 40 -32z m154 -96 c36 -18 54 -30 40 -26 -39
10 -113 50 -140 74 l-25 22 30 -18 c17 -11 59 -34 95 -52z m1300 31 c0 -5 -9
-31 -20 -59 -27 -73 -161 -541 -204 -714 -36 -147 -76 -360 -76 -408 0 -31
-16 -60 -26 -49 -13 13 17 251 52 412 51 235 208 779 235 811 12 15 39 19 39
7z m1655 -42 c75 -34 116 -101 141 -229 12 -65 20 -252 10 -241 -2 2 -6 51
-10 109 -6 111 -32 228 -61 277 -31 53 -79 77 -154 77 -123 -2 -262 -79 -428
-238 -181 -172 -336 -416 -477 -746 -119 -280 -206 -481 -228 -525 -11 -22
-37 -78 -58 -125 -46 -104 -187 -361 -242 -444 -40 -58 -126 -176 -138 -186
-3 -3 -37 -43 -77 -90 -77 -92 -243 -260 -243 -246 0 4 38 47 83 94 358 372
469 556 812 1352 148 345 178 409 248 526 90 154 181 274 289 381 115 114 142
136 241 195 130 76 217 94 292 59z m5262 -63 c-13 -13 -36 -48 -51 -78 -44
-85 -62 -106 -147 -171 -115 -87 -189 -120 -454 -198 -99 -29 -145 -80 -147
-164 -2 -130 139 -230 305 -214 200 19 404 170 502 370 69 143 89 276 60 407
-3 14 1 10 9 -10 18 -43 21 -207 5 -282 -19 -94 -92 -231 -165 -308 -190 -201
-442 -258 -626 -141 -83 53 -129 171 -93 242 32 63 73 96 149 119 248 75 346
120 450 206 70 57 156 159 156 183 0 19 40 61 57 61 9 0 6 -8 -10 -22z m-4335
-20 c-199 -326 -261 -447 -337 -658 -62 -169 -119 -385 -160 -605 -90 -480
-210 -749 -403 -897 -103 -79 -229 -100 -299 -50 -42 30 -79 105 -99 202 -33
166 -10 413 72 760 122 515 156 813 107 923 -12 26 -26 47 -32 47 -5 0 -30
-37 -56 -82 -26 -46 -67 -117 -91 -158 -70 -118 -183 -398 -344 -850 -173
-485 -406 -855 -689 -1091 -100 -83 -298 -219 -411 -281 -87 -48 -526 -267
-559 -279 l-26 -9 25 19 c14 11 36 26 50 33 14 7 57 31 95 54 39 22 120 67
180 99 181 96 215 115 330 187 278 176 463 349 612 573 182 275 277 478 433
930 63 182 165 429 232 558 68 132 191 322 212 330 24 9 55 -31 76 -99 38
-125 23 -308 -60 -704 -22 -107 -47 -218 -55 -246 -57 -200 -92 -472 -80 -627
15 -191 71 -277 182 -277 116 0 267 126 354 295 103 199 147 345 239 795 51
246 167 573 268 750 20 36 40 72 43 80 10 23 128 209 166 263 40 54 55 63 25
15z m1499 -909 c-17 -68 -37 -182 -46 -254 -8 -71 -19 -159 -24 -195 l-9 -65
-1 72 c-1 101 24 274 65 433 19 74 34 137 34 139 0 2 2 2 5 -1 3 -3 -8 -61
-24 -129z m-61 -562 c0 -5 -4 -5 -10 -2 -5 3 -10 14 -10 23 0 15 2 15 10 2 5
-8 10 -19 10 -23z m-3 -79 c-2 -13 -4 -5 -4 17 -1 22 1 32 4 23 2 -10 2 -28 0
-40z m633 -521 c0 -16 -20 5 -36 36 l-15 32 25 -30 c14 -16 26 -34 26 -38z
m730 28 c-52 -7 -133 -18 -180 -24 -47 -6 -101 -13 -120 -16 -25 -4 -29 -3
-15 3 11 5 67 16 125 25 58 9 116 18 130 20 14 3 54 4 90 4 64 1 63 0 -30 -12z
m518 8 c-10 -2 -26 -2 -35 0 -10 3 -2 5 17 5 19 0 27 -2 18 -5z m-883 -63
c-11 -5 -27 -9 -35 -9 -13 -1 -13 0 0 9 8 5 24 9 35 9 l20 0 -20 -9z m1420
-66 c30 -21 5 -16 -35 7 -26 15 -29 18 -10 13 14 -4 34 -13 45 -20z m300 -114
c10 -11 16 -20 13 -20 -3 0 -13 9 -23 20 -10 11 -16 20 -13 20 3 0 13 -9 23
-20z m-66 -104 c48 -99 41 -177 -23 -263 -70 -94 -185 -143 -346 -148 l-105
-4 96 8 c154 13 253 53 323 132 49 54 66 96 66 163 0 56 -23 129 -47 154 -7 7
-13 18 -13 23 0 22 19 -4 49 -65z m-2710 60 c-2 -2 -148 -5 -324 -8 -176 -3
-275 -2 -220 2 110 7 551 12 544 6z m679 -3 c-32 -2 -84 -2 -115 0 -32 2 -6 3
57 3 63 0 89 -1 58 -3z m554 -19 c178 -18 302 -44 411 -87 90 -35 97 -47 9
-18 -179 61 -310 83 -607 106 -166 12 -167 12 -68 14 57 0 171 -6 255 -15z
m-1989 -1 c-18 -2 -48 -2 -65 0 -18 2 -4 4 32 4 36 0 50 -2 33 -4z m-254 -17
c-2 -2 -47 -6 -99 -8 -54 -3 -75 -2 -50 2 50 8 156 12 149 6z m-292 -22 c-3
-3 -12 -4 -19 -1 -8 3 -5 6 6 6 11 1 17 -2 13 -5z m-199 -21 c-10 -2 -26 -2
-35 0 -10 3 -2 5 17 5 19 0 27 -2 18 -5z m4387 -79 c29 -101 35 -153 25 -222
-23 -161 -96 -278 -235 -377 -100 -71 -185 -106 -345 -145 -96 -22 -315 -39
-290 -21 8 6 38 11 65 11 73 0 269 43 366 81 231 89 371 229 415 415 19 82 13
179 -15 257 -36 100 -35 95 -17 73 8 -11 22 -43 31 -72z m-4462 69 c-7 -2 -19
-2 -25 0 -7 3 -2 5 12 5 14 0 19 -2 13 -5z m494 -59 c-3 -3 -12 -4 -19 -1 -8
3 -5 6 6 6 11 1 17 -2 13 -5z m366 -1 c-13 -2 -35 -2 -50 0 -16 2 -5 4 22 4
28 0 40 -2 28 -4z m-630 -10 c-7 -2 -21 -2 -30 0 -10 3 -4 5 12 5 17 0 24 -2
18 -5z m80 0 c-7 -2 -19 -2 -25 0 -7 3 -2 5 12 5 14 0 19 -2 13 -5z m654 1
c-3 -3 -12 -4 -19 -1 -8 3 -5 6 6 6 11 1 17 -2 13 -5z m-804 -11 c-7 -2 -19
-2 -25 0 -7 3 -2 5 12 5 14 0 19 -2 13 -5z m-268 -19 c-170 -16 -251 -14 -135
2 41 6 122 11 180 11 l105 1 -150 -14z m1418 9 c-13 -2 -33 -2 -45 0 -13 2 -3
4 22 4 25 0 35 -2 23 -4z m80 -10 c-7 -2 -21 -2 -30 0 -10 3 -4 5 12 5 17 0
24 -2 18 -5z m-4099 -26 c-3 -8 -19 -24 -37 -37 l-32 -23 35 36 c39 41 41 42
34 24z m2261 -7 c-71 -10 -191 -26 -265 -35 -481 -60 -1009 -157 -1372 -254
-82 -21 -148 -35 -148 -30 0 5 6 9 14 9 8 0 70 16 138 35 68 19 222 58 343 85
352 79 1187 208 1345 208 73 0 72 0 -55 -18z m951 -120 c149 -14 176 -19 171
-33 -5 -15 -29 -21 -307 -73 -135 -25 -280 -54 -324 -65 -43 -11 -80 -18 -82
-16 -6 6 60 161 78 185 13 15 304 17 464 2z m-3431 -65 c-22 -19 -44 -35 -48
-35 -5 0 10 16 33 35 23 19 45 35 48 35 4 -1 -11 -16 -33 -35z m-195 -140
c-19 -14 -38 -25 -44 -25 -5 0 5 11 24 25 19 14 38 25 44 25 5 0 -5 -11 -24
-25z m847 -11 c-3 -3 -12 -4 -19 -1 -8 3 -5 6 6 6 11 1 17 -2 13 -5z m5143
-69 c33 -17 40 -28 13 -18 -23 8 -60 33 -50 33 5 0 21 -7 37 -15z m-6145 -15
c-4 -6 -25 -20 -47 -31 -22 -11 -37 -16 -33 -10 3 6 23 20 43 31 44 23 45 23
37 10z m6210 -20 c3 -6 -1 -7 -9 -4 -18 7 -21 14 -7 14 6 0 13 -4 16 -10z
m130 -78 c-3 -3 -11 0 -18 7 -9 10 -8 11 6 5 10 -3 15 -9 12 -12z m-6580 -32
c-3 -5 -12 -10 -18 -10 -7 0 -6 4 3 10 19 12 23 12 15 0z m-40 -20 c-3 -5 -12
-10 -18 -10 -7 0 -6 4 3 10 19 12 23 12 15 0z m210 -89 c-77 -28 -101 -34 -93
-26 9 10 109 44 128 44 8 0 -7 -8 -35 -18z m6902 -37 c-3 -3 -12 -4 -19 -1 -8
3 -5 6 6 6 11 1 17 -2 13 -5z m-7447 -14 c-34 -11 -60 -11 -35 0 11 5 29 8 40
8 16 0 15 -2 -5 -8z m-83 -26 c-3 -3 -12 -4 -19 -1 -8 3 -5 6 6 6 11 1 17 -2
13 -5z m383 -5 c-31 -13 -167 -49 -177 -48 -14 2 161 57 182 57 16 1 16 -1 -5
-9z m-485 -29 c-11 -5 -27 -9 -35 -9 -9 0 -8 4 5 9 11 5 27 9 35 9 9 0 8 -4
-5 -9z m-175 -40 c-14 -4 -32 -8 -40 -9 -13 -1 -13 0 0 9 8 5 26 9 40 9 l25
-1 -25 -8z m430 0 c-8 -5 -26 -9 -40 -9 l-25 1 25 8 c14 4 32 8 40 9 13 1 13
0 0 -9z m-390 -90 c-14 -4 -36 -8 -50 -8 -22 0 -22 1 5 8 17 4 39 8 50 8 16 0
15 -2 -5 -8z m-92 -17 c-10 -2 -26 -2 -35 0 -10 3 -2 5 17 5 19 0 27 -2 18 -5z"/>
<path d="M2360 3380 c-21 -7 -17 -8 20 -8 25 0 54 3 65 8 27 11 -49 11 -85 0z"/>
<path d="M2054 3368 c-9 -14 25 -21 49 -11 21 9 20 10 -11 15 -18 2 -35 1 -38
-4z"/>
<path d="M2283 3373 c9 -2 23 -2 30 0 6 3 -1 5 -18 5 -16 0 -22 -2 -12 -5z"/>
<path d="M1371 1447 c-13 -16 -5 -27 21 -27 11 0 18 7 18 20 0 23 -22 27 -39
7z"/>
<path d="M630 1271 c0 -5 5 -13 10 -16 6 -3 10 -2 10 4 0 5 -4 13 -10 16 -5 3
-10 2 -10 -4z"/>
<path d="M750 720 c0 -23 15 -26 35 -6 16 16 10 26 -17 26 -11 0 -18 -7 -18
-20z"/>
<path d="M1205 620 c3 -5 8 -10 11 -10 2 0 4 5 4 10 0 6 -5 10 -11 10 -5 0 -7
-4 -4 -10z"/>
</g>
</svg>
